<svg xmlns="http://www.w3.org/2000/svg" viewBox="0 0 1280 910" width="100%" height="100%">
  <defs>
    <filter id="shadow" x="-5%" y="-5%" width="110%" height="110%">
      <feDropShadow dx="3" dy="15" stdDeviation="8" flood-color="#000000" flood-opacity="0.7"/>
    </filter>
    <style>
      .title {
        font-family: -apple-system, BlinkMacSystemFont, "Segoe UI", Roboto, Helvetica, Arial, sans-serif;
        font-size: 64px;
        fill: #ffffff;
      }
      .text {
        font-family: -apple-system, BlinkMacSystemFont, "Segoe UI", Roboto, Helvetica, Arial, sans-serif;
        font-size: 24px;
        fill: #ffffff;
      }
    </style>
  </defs>

  <rect x="20" y="5" width="1230" height="860" fill="#499900" rx="24" stroke="#355500" stroke-width="3" filter="url(#shadow)" />
  <text x="6%" y="7%" class="title">Прогресс по ДЭЧ <tspan font-size="0.6em">(Дружба - это чудо)</tspan></text>

  <rect x="64" y="100" width="1130" height="3" fill="#fff5"/>

  <g transform="translate(210, 130)">

    <rect x="0" y="0" width="1000" height="60" fill="#333" rx="24" />

    <rect id="progress-fill" x="0" y="0" width="77" height="60" fill="#66d400" rx="24" />

    <text x="-12%" y="55" font-family="Dela Gothic One" font-size="72px" fill="#fff">S1</text>
    <text x="30%" y="40" font-family="Comfortaa" font-size="36px" fill="#fff">2/26 серий (7.7%)</text>
  </g>
  <g transform="translate(210, 210)">

    <rect x="0" y="0" width="1000" height="60" fill="#333" rx="24" />

    <rect id="progress-fill" x="0" y="0" width="0" height="60" fill="#66d400" rx="24" />

    <text x="-12%" y="55" font-family="Dela Gothic One" font-size="72px" fill="#fff">S2</text>
    <text x="23%" y="40" font-family="Comfortaa" font-size="36px" fill="#fff">ещё не начал смотреть</text>
  </g>
  <g transform="translate(210, 290)">

    <rect x="0" y="0" width="1000" height="60" fill="#333" rx="24" />

    <rect id="progress-fill" x="0" y="0" width="0" height="60" fill="#66d400" rx="24" />

    <text x="-12%" y="55" font-family="Dela Gothic One" font-size="72px" fill="#fff">S3</text>
    <text x="23%" y="40" font-family="Comfortaa" font-size="36px" fill="#fff">ещё не начал смотреть</text>
  </g>
  <g transform="translate(210, 370)">

    <rect x="0" y="0" width="1000" height="60" fill="#333" rx="24" />

    <rect id="progress-fill" x="0" y="0" width="0" height="60" fill="#66d400" rx="24" />

    <text x="-12%" y="55" font-family="Dela Gothic One" font-size="72px" fill="#fff">S4</text>
    <text x="23%" y="40" font-family="Comfortaa" font-size="36px" fill="#fff">ещё не начал смотреть</text>
  </g>
  <g transform="translate(210, 450)">

    <rect x="0" y="0" width="1000" height="60" fill="#333" rx="24" />

    <rect id="progress-fill" x="0" y="0" width="0" height="60" fill="#66d400" rx="24" />

    <text x="-12%" y="55" font-family="Dela Gothic One" font-size="72px" fill="#fff">S5</text>
    <text x="23%" y="40" font-family="Comfortaa" font-size="36px" fill="#fff">ещё не начал смотреть</text>
  </g>
  <g transform="translate(210, 530)">

    <rect x="0" y="0" width="1000" height="60" fill="#333" rx="24" />

    <rect id="progress-fill" x="0" y="0" width="0" height="60" fill="#66d400" rx="24" />

    <text x="-12%" y="55" font-family="Dela Gothic One" font-size="72px" fill="#fff">S6</text>
    <text x="23%" y="40" font-family="Comfortaa" font-size="36px" fill="#fff">ещё не начал смотреть</text>
  </g>
  <g transform="translate(210, 610)">

    <rect x="0" y="0" width="1000" height="60" fill="#333" rx="24" />

    <rect id="progress-fill" x="0" y="0" width="0" height="60" fill="#66d400" rx="24" />

    <text x="-12%" y="55" font-family="Dela Gothic One" font-size="72px" fill="#fff">S7</text>
    <text x="23%" y="40" font-family="Comfortaa" font-size="36px" fill="#fff">ещё не начал смотреть</text>
  </g>
  <g transform="translate(210, 690)">

    <rect x="0" y="0" width="1000" height="60" fill="#333" rx="24" />

    <rect id="progress-fill" x="0" y="0" width="0" height="60" fill="#66d400" rx="24" />

    <text x="-12%" y="55" font-family="Dela Gothic One" font-size="72px" fill="#fff">S8</text>
    <text x="23%" y="40" font-family="Comfortaa" font-size="36px" fill="#fff">ещё не начал смотреть</text>
  </g>
  <g transform="translate(210, 770)">

    <rect x="0" y="0" width="1000" height="60" fill="#333" rx="24" />

    <rect id="progress-fill" x="0" y="0" width="0" height="60" fill="#66d400" rx="24" />

    <text x="-12%" y="55" font-family="Dela Gothic One" font-size="72px" fill="#fff">S9</text>
    <text x="23%" y="40" font-family="Comfortaa" font-size="36px" fill="#fff">ещё не начал смотреть</text>
  </g>
</svg>
